<svg width="148" height="148" viewBox="0 0 148 148" fill="none" xmlns="http://www.w3.org/2000/svg">
<circle cx="74.0839" cy="73.3056" r="67.0761" fill="white"/>
<path d="M74.0839 127.922C103.887 127.922 128.049 103.76 128.049 73.9572C128.049 44.1539 103.887 19.9924 74.0839 19.9924C44.2806 19.9924 20.1191 44.1539 20.1191 73.9572C20.1191 103.76 44.2806 127.922 74.0839 127.922ZM107.101 99.1735C107.64 100.891 106.365 102.608 104.648 102.657H43.5693C41.8522 102.657 40.5767 100.989 41.0673 99.3206L42.7843 93.1883C43.0787 92.0599 44.1089 91.275 45.2863 91.275H45.826V53.1562C43.7655 51.7826 43.373 48.3975 45.9241 46.8767L72.4159 30.8835C73.5933 30.1476 75.0651 30.1476 76.2425 30.8835L102.685 46.8767C105.236 48.3975 104.844 51.7826 102.734 53.1562V91.2259H102.587C103.715 91.2259 104.746 91.9618 105.089 93.0411L107.101 99.1735Z" fill="#E84341"/>
<path d="M107.101 99.1735C107.64 100.891 106.365 102.608 104.648 102.657H43.5693C41.8522 102.657 40.5767 100.989 41.0673 99.3206L42.7843 93.1883C43.0787 92.0599 44.1089 91.275 45.2863 91.275H45.826V53.1562C43.7655 51.7826 43.373 48.3975 45.9241 46.8767L72.4159 30.8835C73.5933 30.1476 75.0651 30.1476 76.2425 30.8835L102.685 46.8767C105.236 48.3975 104.844 51.7826 102.734 53.1562V91.2259H102.587C103.715 91.2259 104.746 91.9618 105.089 93.0411L107.101 99.1735Z" fill="#E84341"/>
<path d="M74.0834 0.368652C33.4431 0.368652 0.495117 33.3166 0.495117 73.957C0.495117 114.597 33.4431 147.545 74.0834 147.545C114.724 147.545 147.672 114.597 147.672 73.957C147.672 33.3166 114.724 0.368652 74.0834 0.368652ZM10.3069 73.957C10.3069 38.7327 38.8592 10.1804 74.0834 10.1804C109.308 10.1804 137.86 38.7327 137.86 73.957C137.86 109.181 109.308 137.734 74.0834 137.734C38.8592 137.734 10.3069 109.181 10.3069 73.957Z" fill="#E84341"/>
<g filter="url(#filter0_d_2009_267)">
<path d="M58.3999 47.4311C60.1119 48.1642 61.5288 49.5164 62.3968 51.2453C63.2648 52.9742 63.527 54.9668 63.1366 56.8662C63.0223 57.387 63.0803 57.9356 63.3011 58.4207C63.5219 58.9058 63.8921 59.2979 64.3499 59.5318L89.2365 72.2708C89.6939 72.5055 90.2116 72.5678 90.7032 72.4474C91.1947 72.3269 91.6305 72.031 91.9377 71.609C92.7111 70.5796 93.7104 69.7668 94.8501 69.2401C95.9899 68.7133 97.2363 68.4883 98.4829 68.5841C99.7295 68.6799 100.939 69.0937 102.009 69.7902C103.079 70.4867 103.976 71.4453 104.626 72.584C105.275 73.7227 105.656 75.0077 105.737 76.3293C105.818 77.651 105.596 78.97 105.091 80.1737C104.585 81.3774 103.81 82.4301 102.833 83.2419C101.856 84.0536 100.705 84.6004 99.4787 84.8354C100.077 86.0045 100.401 87.3064 100.424 88.6298C100.446 89.9533 100.166 91.2591 99.6073 92.4357C99.0486 93.6122 98.2279 94.6247 97.2152 95.3865C96.2025 96.1483 95.028 96.6369 93.7919 96.8105C92.5558 96.9842 91.2949 96.8377 90.1168 96.3836C88.9387 95.9295 87.8784 95.1814 87.0265 94.203C86.1746 93.2245 85.5563 92.045 85.2245 90.765C84.8927 89.4849 84.8572 88.1425 85.1211 86.8523C85.2354 86.3315 85.1774 85.7829 84.9566 85.2978C84.7358 84.8127 84.3657 84.4205 83.9078 84.1867L59.0212 71.4477C58.5638 71.213 58.0461 71.1507 57.5546 71.2711C57.063 71.3916 56.6273 71.6875 56.32 72.1095C55.5466 73.1389 54.5473 73.9517 53.4076 74.4784C52.2678 75.0051 51.0214 75.2302 49.7748 75.1344C48.5282 75.0386 47.3184 74.6248 46.2487 73.9283C45.179 73.2318 44.2812 72.2732 43.632 71.1345C42.9828 69.9958 42.6014 68.7108 42.5204 67.3892C42.4394 66.0675 42.6613 64.7485 43.167 63.5448C43.6727 62.3411 44.4472 61.2884 45.4245 60.4766C46.4017 59.6649 47.5527 59.1181 48.779 58.8831C48.0146 57.3954 47.6985 55.6997 47.8738 54.0266C48.0491 52.3536 48.7072 50.7846 49.7587 49.533C50.8101 48.2815 52.2037 47.4083 53.7499 47.0322C55.2961 46.6561 56.9198 46.7954 58.3999 47.4311Z" fill="white"/>
<path d="M46.9764 49.59C45.664 51.9324 45.2739 54.7367 45.8895 57.404C44.5474 58.082 43.3701 59.0734 42.445 60.3046C41.52 61.5358 40.8708 62.9752 40.5457 64.5161C40.2206 66.0569 40.228 67.6597 40.5672 69.2055C40.9064 70.7513 41.5688 72.2004 42.5052 73.4454C43.4417 74.6904 44.6281 75.6993 45.9765 76.3973C47.325 77.0952 48.8008 77.4644 50.2946 77.4773C51.7883 77.4902 53.2617 77.1465 54.6053 76.4719C55.949 75.7972 57.1285 74.8087 58.0563 73.5798C58.0628 73.5761 58.0698 73.5735 58.0771 73.5722L82.9521 86.2938L82.9614 86.3215C82.6492 87.8655 82.6699 89.4683 83.022 91.011C83.3741 92.5537 84.0484 93.9967 84.9951 95.233C85.9418 96.4693 87.1365 97.4672 88.4905 98.1526C89.8446 98.838 91.3233 99.1933 92.8169 99.1922C94.3106 99.1912 95.7809 98.8337 97.1187 98.1464C98.4565 97.459 99.6276 96.4595 100.545 95.2218C101.462 93.9842 102.103 92.5402 102.418 90.9971C102.734 89.4539 102.717 87.8511 102.368 86.3075C103.71 85.6295 104.887 84.6381 105.813 83.4069C106.738 82.1757 107.387 80.7363 107.712 79.1954C108.037 77.6546 108.03 76.0518 107.69 74.506C107.351 72.9602 106.689 71.5111 105.752 70.2661C104.816 69.0211 103.629 68.0122 102.281 67.3143C100.933 66.6163 99.4568 66.2472 97.963 66.2342C96.4692 66.2213 94.9959 66.565 93.6522 67.2397C92.3086 67.9144 91.1291 68.9028 90.2013 70.1317C90.1945 70.1348 90.1876 70.1373 90.1805 70.1393L65.3018 57.4066L65.2924 57.379C65.8035 54.9296 65.4694 52.3569 64.3505 50.1251C63.2316 47.8933 61.4015 46.1494 59.1904 45.208C56.9794 44.2666 54.533 44.1897 52.2926 44.9912C50.0522 45.7927 48.1655 47.4198 46.9727 49.5789L46.9764 49.59ZM57.586 49.5947C58.8102 50.1175 59.8237 51.0832 60.4446 52.3187C61.0656 53.5542 61.2534 54.9786 60.9743 56.3363C60.7547 57.3725 60.8755 58.4613 61.3168 59.4234C61.7582 60.3855 62.4938 61.1635 63.4026 61.6293L88.2964 74.3721C89.2062 74.8346 90.234 74.957 91.2104 74.719C92.1868 74.481 93.0537 73.8969 93.6684 73.0627C94.2217 72.329 94.9358 71.75 95.7498 71.3752C96.5638 71.0004 97.4536 70.8409 98.3433 70.9102C99.2331 70.9795 100.096 71.2756 100.86 71.7733C101.623 72.271 102.263 72.9555 102.726 73.7684C103.19 74.5813 103.462 75.4985 103.519 76.4418C103.577 77.3852 103.419 78.3267 103.059 79.186C102.698 80.0453 102.146 80.797 101.448 81.377C100.751 81.957 99.9302 82.348 99.0551 82.5168C98.7413 82.5766 98.4442 82.7079 98.1844 82.9017C97.9246 83.0955 97.7081 83.3472 97.55 83.6394C97.3918 83.9317 97.2957 84.2575 97.2683 84.5945C97.2409 84.9315 97.2828 85.2716 97.3911 85.5915C97.4305 85.7052 97.4776 85.8158 97.5321 85.9224C97.9571 86.7568 98.1868 87.6853 98.2018 88.6288C98.2167 89.5724 98.0163 90.503 97.6178 91.3417C97.2192 92.1804 96.6343 92.9023 95.9126 93.4459C95.191 93.9895 94.3541 94.3388 93.4731 94.464C92.592 94.5893 91.693 94.4868 90.8524 94.1652C90.0117 93.8437 89.2544 93.3127 88.6449 92.6173C88.0353 91.9219 87.5916 91.0828 87.3513 90.1713C87.1111 89.2598 87.0815 88.3029 87.265 87.382C87.4847 86.3457 87.3639 85.2569 86.9225 84.2948C86.4812 83.3327 85.7455 82.5547 84.8368 82.0889L59.943 69.3462C59.0347 68.886 58.0095 68.7646 57.0354 69.0018C56.0613 69.239 55.196 69.8207 54.5813 70.6517C54.0281 71.3854 53.314 71.9644 52.5 72.3392C51.686 72.714 50.7961 72.8735 49.9064 72.8042C49.0167 72.7349 48.1534 72.4387 47.3902 71.9411C46.627 71.4434 45.9865 70.7589 45.5234 69.946C45.0602 69.1331 44.7881 68.2159 44.7303 67.2725C44.6724 66.3292 44.8305 65.3877 45.1912 64.5284C45.5518 63.6691 46.1042 62.9174 46.8013 62.3374C47.4984 61.7574 48.3196 61.3664 49.1947 61.1976C49.5367 61.1323 49.8583 60.982 50.1333 60.7592C50.4084 60.5364 50.6291 60.2472 50.7776 59.9153C50.926 59.5833 50.9979 59.218 50.9875 58.849C50.9771 58.4801 50.8846 58.1179 50.7176 57.792C50.1655 56.7278 49.9354 55.5126 50.0588 54.3129C50.1823 53.1133 50.6533 51.9878 51.4073 51.0908C52.1613 50.1938 53.1614 49.5691 54.2706 49.3024C55.3797 49.0357 56.5436 49.14 57.6027 49.601L57.586 49.5947Z" fill="#CE3346"/>
</g>
<g filter="url(#filter1_d_2009_267)">
<path d="M99.8369 48.2461C99.2229 50.601 97.8405 52.6871 95.9374 54.1306C94.0342 55.5742 91.7347 56.2808 89.4509 56.124C88.8237 56.0715 88.1885 56.2477 87.6512 56.6232C87.114 56.9987 86.7072 57.5509 86.4987 58.1875L75.1317 92.8022C74.9221 93.4385 74.9234 94.1213 75.1352 94.7366C75.3471 95.3518 75.7568 95.8624 76.2959 96.1832C77.6143 96.9968 78.7111 98.1431 79.4927 99.5242C80.2742 100.905 80.7172 102.48 80.7839 104.114C80.8506 105.748 80.539 107.393 79.8757 108.909C79.2124 110.424 78.217 111.764 76.9747 112.816C75.7324 113.867 74.28 114.598 72.7415 114.946C71.2029 115.294 69.624 115.249 68.1396 114.815C66.6551 114.38 65.3091 113.57 64.2167 112.452C63.1242 111.334 62.3176 109.942 61.8658 108.395C60.5805 109.386 59.1001 110.046 57.5511 110.318C56.002 110.591 54.4302 110.468 52.97 109.96C51.5097 109.452 50.2044 108.574 49.1654 107.401C48.1264 106.228 47.3846 104.794 47.0034 103.223C46.6222 101.652 46.6129 99.9904 46.9763 98.3792C47.3396 96.768 48.0649 95.2555 49.0901 93.9708C50.1153 92.6861 51.41 91.6674 52.8637 91.0017C54.3174 90.336 55.8868 90.043 57.438 90.1478C58.0652 90.2004 58.7004 90.0242 59.2376 89.6486C59.7749 89.2731 60.1817 88.721 60.3901 88.0843L71.7572 53.4696C71.9668 52.8333 71.9655 52.1505 71.7536 51.5352C71.5418 50.92 71.1321 50.4094 70.593 50.0886C69.2745 49.275 68.1777 48.1287 67.3962 46.7477C66.6147 45.3666 66.1717 43.7917 66.105 42.1576C66.0383 40.5234 66.3499 38.8785 67.0132 37.3633C67.6765 35.8481 68.6718 34.5076 69.9142 33.4563C71.1565 32.4049 72.6089 31.674 74.1474 31.3259C75.6859 30.9777 77.2648 31.0228 78.7493 31.4571C80.2338 31.8914 81.5797 32.7022 82.6722 33.8201C83.7647 34.938 84.5713 36.3299 85.0231 37.8769C86.6582 36.612 88.6017 35.8902 90.5892 35.8098C92.5766 35.7294 94.5115 36.2942 96.1304 37.4274C97.7494 38.5606 98.9738 40.2071 99.637 42.143C100.3 44.0788 100.37 46.2098 99.8369 48.2461Z" fill="white"/>
<path d="M95.6647 33.8303C92.7288 32.5593 89.3836 32.5693 86.3436 33.8582C85.3555 32.2425 84.0236 30.8983 82.4467 29.9252C80.8697 28.9521 79.0882 28.3751 77.2342 28.237C75.3803 28.0989 73.5015 28.4032 71.7371 29.1274C69.9728 29.8517 68.3683 30.9772 67.0425 32.4205C65.7168 33.8638 64.7039 35.5879 64.0789 37.4648C63.4539 39.3418 63.2329 41.3235 63.4323 43.2629C63.6317 45.2022 64.2464 47.0496 65.2308 48.6678C66.2151 50.2861 67.5439 51.6338 69.1185 52.6108C69.1238 52.6186 69.1278 52.6272 69.1304 52.6364L57.7821 87.2329L57.751 87.2501C55.8952 87.1293 54.0182 87.451 52.2594 88.1913C50.5005 88.9316 48.9048 90.0715 47.5908 91.5265C46.2767 92.9815 45.2779 94.7143 44.6685 96.5962C44.0591 98.4781 43.8547 100.461 44.0705 102.398C44.2863 104.334 44.9167 106.175 45.915 107.784C46.9134 109.392 48.2539 110.727 49.8373 111.689C51.4207 112.651 53.2063 113.215 55.0617 113.341C56.917 113.466 58.7944 113.149 60.5548 112.413C61.5428 114.029 62.8747 115.373 64.4516 116.346C66.0286 117.319 67.8101 117.896 69.6641 118.034C71.518 118.172 73.3969 117.868 75.1612 117.144C76.9255 116.419 78.53 115.294 79.8558 113.851C81.1815 112.407 82.1945 110.683 82.8194 108.806C83.4444 106.929 83.6654 104.948 83.466 103.008C83.2666 101.069 82.6519 99.2215 81.6676 97.6032C80.6832 95.985 79.3545 94.6373 77.7798 93.6602C77.7752 93.6521 77.7712 93.6435 77.7679 93.6347L89.1287 59.0313L89.1598 59.0141C92.1061 59.2262 95.0756 58.3198 97.5325 56.4583C99.9894 54.5968 101.772 51.9029 102.559 48.8626C103.345 45.8223 103.084 42.6358 101.822 39.878C100.56 37.1203 98.3809 34.973 95.6772 33.8234L95.6647 33.8303ZM97.1831 47.589C96.7457 49.2726 95.7585 50.7645 94.3986 51.797C93.0387 52.8295 91.395 53.335 89.7626 53.2229C88.5156 53.1286 87.2558 53.4856 86.1908 54.2349C85.1257 54.9842 84.3189 56.0812 83.9031 57.3453L72.5327 91.97C72.1208 93.235 72.1249 94.5902 72.5443 95.8126C72.9637 97.035 73.7734 98.0517 74.8401 98.6954C75.7801 99.2778 76.5617 100.097 77.1183 101.084C77.6748 102.071 77.9897 103.195 78.0362 104.362C78.0827 105.528 77.8593 106.702 77.3852 107.783C76.9111 108.864 76.2003 109.821 75.3134 110.571C74.4264 111.321 73.3897 111.843 72.2916 112.091C71.1935 112.34 70.0665 112.308 69.0068 111.998C67.9471 111.689 66.9861 111.111 66.2057 110.313C65.4253 109.516 64.8487 108.523 64.5251 107.419C64.4099 107.024 64.2132 106.663 63.9485 106.361C63.6839 106.06 63.3576 105.826 62.9921 105.674C62.6267 105.523 62.2307 105.458 61.8315 105.485C61.4323 105.511 61.0394 105.628 60.6797 105.827C60.5521 105.899 60.4291 105.981 60.3119 106.071C59.3943 106.776 58.3383 107.244 57.2337 107.437C56.1292 107.63 55.0088 107.542 53.9679 107.179C52.9269 106.816 51.9963 106.191 51.255 105.355C50.5138 104.519 49.9839 103.498 49.7104 102.379C49.437 101.259 49.4281 100.075 49.6844 98.9254C49.9408 97.7762 50.4549 96.6965 51.1829 95.7782C51.911 94.8598 52.8315 94.13 53.8661 93.6508C54.9007 93.1716 56.0188 92.9572 57.1253 93.0258C58.3723 93.1201 59.632 92.7631 60.697 92.0138C61.7621 91.2645 62.569 90.1675 62.9848 88.9034L74.3551 54.2787C74.7644 53.0162 74.7595 51.6645 74.3414 50.4449C73.9233 49.2254 73.1167 48.2103 72.0537 47.5661C71.1137 46.9836 70.3321 46.1642 69.7756 45.1775C69.2191 44.1909 68.9041 43.0664 68.8576 41.8999C68.8112 40.7334 69.0345 39.5595 69.5086 38.4783C69.9827 37.3971 70.6935 36.4406 71.5804 35.6905C72.4674 34.9404 73.5041 34.4188 74.6022 34.1703C75.7004 33.9217 76.8273 33.9536 77.887 34.2632C78.9467 34.5727 79.9077 35.1508 80.6881 35.9481C81.4685 36.7454 82.0451 37.7382 82.3687 38.842C82.4945 39.2734 82.7169 39.6628 83.0178 39.9785C83.3187 40.2942 83.6895 40.5273 84.1002 40.6587C84.5108 40.7901 84.9496 40.8162 85.3809 40.7348C85.8122 40.6535 86.2237 40.4669 86.5819 40.1904C87.7508 39.2787 89.143 38.7567 90.5679 38.6962C91.9927 38.6356 93.3804 39.0393 94.5408 39.8521C95.7012 40.6648 96.5776 41.8468 97.0497 43.236C97.5218 44.6252 97.5667 46.1536 97.1781 47.6119L97.1831 47.589Z" fill="#CE3346"/>
</g>
<defs>
<filter id="filter0_d_2009_267" x="40.3071" y="44.4414" width="67.6431" height="57.2242" filterUnits="userSpaceOnUse" color-interpolation-filters="sRGB">
<feFlood flood-opacity="0" result="BackgroundImageFix"/>
<feColorMatrix in="SourceAlpha" type="matrix" values="0 0 0 0 0 0 0 0 0 0 0 0 0 0 0 0 0 0 127 0" result="hardAlpha"/>
<feOffset dy="2.47352"/>
<feComposite in2="hardAlpha" operator="out"/>
<feColorMatrix type="matrix" values="0 0 0 0 0.886275 0 0 0 0 0.129412 0 0 0 0 0.223529 0 0 0 1 0"/>
<feBlend mode="normal" in2="BackgroundImageFix" result="effect1_dropShadow_2009_267"/>
<feBlend mode="normal" in="SourceGraphic" in2="effect1_dropShadow_2009_267" result="shape"/>
</filter>
<filter id="filter1_d_2009_267" x="43.9873" y="28.2046" width="59.0166" height="92.975" filterUnits="userSpaceOnUse" color-interpolation-filters="sRGB">
<feFlood flood-opacity="0" result="BackgroundImageFix"/>
<feColorMatrix in="SourceAlpha" type="matrix" values="0 0 0 0 0 0 0 0 0 0 0 0 0 0 0 0 0 0 127 0" result="hardAlpha"/>
<feOffset dy="3.1132"/>
<feComposite in2="hardAlpha" operator="out"/>
<feColorMatrix type="matrix" values="0 0 0 0 0.886275 0 0 0 0 0.129412 0 0 0 0 0.223529 0 0 0 1 0"/>
<feBlend mode="normal" in2="BackgroundImageFix" result="effect1_dropShadow_2009_267"/>
<feBlend mode="normal" in="SourceGraphic" in2="effect1_dropShadow_2009_267" result="shape"/>
</filter>
</defs>
</svg>
