<svg width="218" height="218" viewBox="0 0 218 218" fill="none" xmlns="http://www.w3.org/2000/svg">
<circle cx="109.036" cy="108.15" r="99.0542" fill="#FFF0F4"/>
<path d="M109.035 188.805C153.047 188.805 188.728 153.124 188.728 109.112C188.728 65.1005 153.047 29.4202 109.035 29.4202C65.0236 29.4202 29.3433 65.1005 29.3433 109.112C29.3433 153.124 65.0236 188.805 109.035 188.805ZM157.793 146.35C158.589 148.886 156.706 151.422 154.17 151.494H63.9731C61.4375 151.494 59.5538 149.031 60.2783 146.568L62.814 137.512C63.2487 135.845 64.7701 134.686 66.5088 134.686H67.3057V78.3946C64.2629 76.3661 63.6833 71.3672 67.4506 69.1214L106.572 45.5035C108.311 44.4168 110.484 44.4168 112.223 45.5035L151.272 69.1214C155.04 71.3672 154.46 76.3661 151.345 78.3946V134.614H151.127C152.794 134.614 154.315 135.701 154.822 137.294L157.793 146.35Z" fill="#E84341"/>
<path d="M157.793 146.35C158.589 148.886 156.706 151.422 154.17 151.494H63.9731C61.4375 151.494 59.5538 149.031 60.2783 146.568L62.814 137.512C63.2487 135.845 64.7701 134.686 66.5088 134.686H67.3057V78.3946C64.2629 76.3661 63.6833 71.3672 67.4506 69.1214L106.572 45.5035C108.311 44.4168 110.484 44.4168 112.223 45.5035L151.272 69.1214C155.04 71.3672 154.46 76.3661 151.345 78.3946V134.614H151.127C152.794 134.614 154.315 135.701 154.822 137.294L157.793 146.35Z" fill="#E84341"/>
<path d="M109.035 0.440918C49.0199 0.440918 0.364258 49.0966 0.364258 109.112C0.364258 169.128 49.0199 217.783 109.035 217.783C169.051 217.783 217.707 169.128 217.707 109.112C217.707 49.0966 169.051 0.440918 109.035 0.440918ZM14.8537 109.112C14.8537 57.0948 57.0181 14.9304 109.035 14.9304C161.053 14.9304 203.217 57.0948 203.217 109.112C203.217 161.129 161.053 203.294 109.035 203.294C57.0181 203.294 14.8537 161.129 14.8537 109.112Z" fill="#E84341"/>
<g filter="url(#filter0_d_2009_250)">
<path d="M87.8843 50.9829C95.2546 50.1915 102.74 58.432 104.587 69.5036C106.435 80.5135 102.049 90.1287 94.6769 90.9818C87.3665 91.8372 79.8192 83.5945 77.9103 72.5207C75.9992 61.5086 80.5095 51.8978 87.8843 50.9829ZM132.318 52.5492C139.671 53.9833 143.426 63.8855 140.863 74.7398C138.111 85.6493 130.06 93.3421 122.766 91.972C115.411 90.5997 111.718 80.6997 114.405 69.8498C117.033 58.9359 125.084 51.2431 132.318 52.5492ZM53.6278 78.2191C60.8198 75.4428 70.257 81.2787 74.9507 91.0285C79.3271 100.953 77.3472 111.147 70.2174 113.926C63.0875 116.704 53.7103 110.932 49.1453 101.064C44.5802 91.1946 46.6866 80.9425 53.6278 78.2191ZM165.488 82.1623C172.219 85.3676 173.593 95.7424 168.339 105.265C163.085 114.788 153.322 119.885 146.407 116.612C139.492 113.338 138.24 103.029 143.31 93.4382C148.684 84.0433 158.511 78.8865 165.488 82.1623ZM152.745 148.371C152.788 154.184 148.085 160.449 142.655 162.67C131.351 167.342 118.55 156.378 106.183 155.942C93.8161 155.507 80.1289 165.969 69.3866 160.087C63.2797 156.842 59.2768 148.662 60.3216 142.021C61.7671 132.858 73.0665 128.31 79.8929 121.811C88.9646 113.412 95.7604 97.2653 108.251 97.7056C120.68 98.1437 126.695 114.495 134.767 123.745C141.397 131.523 152.668 138.289 152.745 148.371Z" fill="#FFF0F4"/>
</g>
<defs>
<filter id="filter0_d_2009_250" x="46.7231" y="50.9304" width="127.373" height="117.996" filterUnits="userSpaceOnUse" color-interpolation-filters="sRGB">
<feFlood flood-opacity="0" result="BackgroundImageFix"/>
<feColorMatrix in="SourceAlpha" type="matrix" values="0 0 0 0 0 0 0 0 0 0 0 0 0 0 0 0 0 0 127 0" result="hardAlpha"/>
<feOffset dx="2.5501" dy="5.10021"/>
<feComposite in2="hardAlpha" operator="out"/>
<feColorMatrix type="matrix" values="0 0 0 0 0.886275 0 0 0 0 0.129412 0 0 0 0 0.223529 0 0 0 1 0"/>
<feBlend mode="normal" in2="BackgroundImageFix" result="effect1_dropShadow_2009_250"/>
<feBlend mode="normal" in="SourceGraphic" in2="effect1_dropShadow_2009_250" result="shape"/>
</filter>
</defs>
</svg>
