<?xml version="1.0" encoding="UTF-8"?><svg xmlns="http://www.w3.org/2000/svg" width="140.93" height="140.93" viewBox="0 0 140.93 140.93"><g><g><circle cx="70.46" cy="70.46" r="67.46" style="stroke-width:0px;"/><path d="M70.46,140.93C31.61,140.93,0,109.32,0,70.46S31.61,0,70.46,0s70.46,31.61,70.46,70.46-31.61,70.46-70.46,70.46ZM70.46,6C34.92,6,6,34.92,6,70.46s28.92,64.46,64.46,64.46,64.46-28.92,64.46-64.46S106.01,6,70.46,6Z" style=" stroke-width:0px;"/></g><polygon points="64.57 70.82 68.11 75.56 64.08 79.91 33.09 113.28 25.26 113.28 60.56 75.16 64.57 70.82" style="fill:#fff; stroke-width:0px;"/><polygon points="112.61 27.65 78.93 63.92 75.03 68.11 71.49 63.35 75.38 59.15 104.54 27.65 112.61 27.65" style="fill:#fff; stroke-width:0px;"/><path d="M78.93,63.92l-3.55-4.77-23.44-31.5h-26.67l35.29,47.51,3.53,4.75,24.79,33.38h26.79l-36.74-49.36ZM68.11,75.56l-3.54-4.74-28.05-37.55h12.6l22.37,30.07,3.55,4.76,29.5,39.67h-12.36l-24.07-32.21Z" style="fill:#fff; stroke-width:0px;"/></g></svg>