<?xml version="1.0" encoding="UTF-8"?><svg id="_Слой_2" xmlns="http://www.w3.org/2000/svg" width="125.22" height="107.39" xmlns:xlink="http://www.w3.org/1999/xlink" viewBox="0 0 125.22 107.39"><defs><linearGradient id="_Безымянный_градиент_20" x1="14.68" y1="78.91" x2="49.2" y2="29.27" gradientUnits="userSpaceOnUse"><stop offset="0" stop-color="#178af2"/><stop offset=".7" stop-color="#30bdff"/></linearGradient><linearGradient id="_Безымянный_градиент_20-2" x1="24.07" y1="65.55" x2="48.27" y2="30.75" xlink:href="#_Безымянный_градиент_20"/><linearGradient id="_Безымянный_градиент_21" x1="36.5" y1="-.4" x2="62.21" y2="18.03" gradientUnits="userSpaceOnUse"><stop offset=".22" stop-color="#178af2"/><stop offset=".98" stop-color="#30bdff"/></linearGradient><linearGradient id="_Безымянный_градиент_23" x1="75.68" y1="55.46" x2="61.8" y2="31.68" gradientUnits="userSpaceOnUse"><stop offset=".06" stop-color="#178af2"/><stop offset=".98" stop-color="#30bdff"/></linearGradient><linearGradient id="_Безымянный_градиент_23-2" x1="96.36" y1="55.15" x2="84.45" y2="34.74" xlink:href="#_Безымянный_градиент_23"/><linearGradient id="_Безымянный_градиент_22" x1="94.82" y1="91.2" x2="102.52" y2="77.29" gradientUnits="userSpaceOnUse"><stop offset="0" stop-color="#178af2"/><stop offset=".98" stop-color="#30bdff"/></linearGradient><linearGradient id="_Безымянный_градиент_22-2" x1="105.35" y1="74.68" x2="117.62" y2="52.51" xlink:href="#_Безымянный_градиент_22"/><linearGradient id="_Безымянный_градиент_22-3" x1="84.29" y1="111.43" x2="97.35" y2="87.84" xlink:href="#_Безымянный_градиент_22"/><linearGradient id="_Безымянный_градиент_22-4" x1="45.33" y1="106.25" x2="68.43" y2="64.53" xlink:href="#_Безымянный_градиент_22"/><linearGradient id="_Безымянный_градиент_22-5" x1="62.78" y1="111.25" x2="95.42" y2="52.29" xlink:href="#_Безымянный_градиент_22"/><linearGradient id="_Безымянный_градиент_21-2" x1="51.9" y1=".16" x2="124.56" y2="52.26" xlink:href="#_Безымянный_градиент_21"/></defs><g id="_Слой_1-2"><polygon points="30.32 5.57 39.35 21.4 18.79 56.9 31.53 76.43 51.92 43.44 59.91 56.6 30.47 107.04 0 57.05 30.32 5.57" style="fill:url(#_Безымянный_градиент_20); stroke-width:0px;"/><polygon points="41.27 25.89 49.26 39.64 31.07 70.41 22.49 57.69 41.27 25.89" style="fill:url(#_Безымянный_градиент_20-2); stroke-width:0px;"/><polygon points="63.1 16.79 44.42 16.79 35.42 1.11 54.67 1.11 63.1 16.79" style="fill:url(#_Безымянный_градиент_21); stroke-width:0px;"/><polygon points="74.34 2.22 81.88 15.68 65.91 15.68 74.34 2.22" style="fill:#00a5f4; stroke-width:0px;"/><polygon points="57.65 38.31 73.89 38.31 81.88 51.77 65.17 51.77 57.65 38.31" style="fill:url(#_Безымянный_градиент_23); stroke-width:0px;"/><polygon points="78.33 38.31 94.75 38.31 102.15 51.77 86.17 51.77 78.33 38.31" style="fill:url(#_Безымянный_градиент_23-2); stroke-width:0px;"/><polygon points="96.23 73.81 88.54 87.72 104.96 87.72 96.23 73.81" style="fill:url(#_Безымянный_градиент_22); stroke-width:0px;"/><polygon points="106.44 56.15 98.45 70.86 116.64 70.86 124.19 56.15 106.44 56.15" style="fill:url(#_Безымянный_градиент_22-2); stroke-width:0px;"/><polygon points="85.73 91.56 104.07 91.56 96.08 107.39 77 107.39 85.73 91.56" style="fill:url(#_Безымянный_градиент_22-3); stroke-width:0px;"/><polygon points="64.87 56.15 81.88 56.15 51.71 107.39 35.88 107.39 64.87 56.15" style="fill:url(#_Безымянный_градиент_22-4); stroke-width:0px;"/><polygon points="85.65 56.15 102.39 56.15 72.63 107.39 55.82 107.39 85.65 56.15" style="fill:url(#_Безымянный_градиент_22-5); stroke-width:0px;"/><polygon points="88.54 20.12 46.83 20.12 55.11 33.87 96.08 33.87 106.29 51.77 125.22 51.77 95.49 0 77 0 88.54 20.12" style="fill:url(#_Безымянный_градиент_21-2); stroke-width:0px;"/></g></svg>